<?xml version="1.0" standalone="no"?>
<!DOCTYPE svg PUBLIC "-//W3C//DTD SVG 20010904//EN"
 "http://www.w3.org/TR/2001/REC-SVG-20010904/DTD/svg10.dtd">
<svg version="1.0" xmlns="http://www.w3.org/2000/svg"
 width="402.000000pt" height="402.000000pt" viewBox="0 0 402.000000 402.000000"
 preserveAspectRatio="xMidYMid meet">

<g transform="translate(0.000000,402.000000) scale(0.100000,-0.100000)"
fill="#000000" stroke="none">
<path d="M180 2010 l0 -590 348 0 c263 0 360 4 399 14 145 39 243 121 471 399
84 102 152 188 152 192 0 3 -62 77 -138 163 -76 86 -146 168 -155 182 -49 70
21 167 101 139 17 -6 84 -74 172 -174 112 -128 147 -162 156 -153 6 7 55 67
109 133 148 181 162 195 206 195 30 0 43 -7 64 -32 48 -57 37 -83 -124 -278
l-141 -172 33 -38 c17 -20 60 -69 94 -107 l62 -70 -61 -72 -62 -73 -30 36
c-95 111 -152 175 -156 175 -3 0 -18 -17 -35 -38 -121 -156 -270 -334 -313
-373 l-51 -48 1279 0 1280 0 0 590 0 590 -327 0 c-362 0 -410 -6 -512 -60 -84
-45 -164 -122 -338 -323 -86 -100 -164 -191 -174 -202 -17 -20 -14 -24 131
-199 82 -99 152 -192 155 -207 7 -32 -16 -83 -44 -99 -32 -17 -74 -11 -102 13
-15 12 -84 91 -154 175 -103 125 -130 151 -140 140 -6 -7 -54 -62 -105 -123
-155 -183 -168 -195 -213 -195 -53 0 -87 35 -87 89 0 44 -6 36 173 244 66 75
117 143 114 150 -3 6 -43 57 -90 113 l-85 101 59 71 c33 40 61 72 63 72 2 0
42 -47 90 -105 48 -58 91 -105 96 -105 8 0 115 122 243 277 37 45 91 102 118
127 l51 46 -1291 0 -1291 0 0 -590z m715 485 c232 -61 392 -300 355 -530 -24
-148 -95 -260 -214 -337 -197 -127 -454 -96 -611 73 -180 196 -177 479 9 665
125 125 294 172 461 129z m2555 -14 c119 -47 234 -163 280 -281 31 -77 37
-205 16 -289 -66 -258 -332 -413 -591 -346 -161 42 -299 182 -341 346 -21 84
-15 212 16 289 55 141 192 263 340 300 61 16 219 5 280 -19z"/>
<path d="M661 2308 c-65 -25 -134 -91 -164 -156 -33 -73 -30 -180 6 -254 49
-101 137 -158 252 -166 281 -17 428 321 224 516 -82 79 -207 103 -318 60z"/>
<path d="M3200 2321 c-169 -55 -256 -221 -204 -387 24 -77 105 -162 178 -187
117 -40 231 -14 317 72 70 71 94 133 87 230 -12 158 -126 270 -283 277 -38 2
-81 0 -95 -5z"/>
</g>
</svg>
